<svg xmlns="http://www.w3.org/2000/svg" fill="none" viewBox="0 0 24.059322033898304 24" style="max-height: 500px"
     width="24" height="24">
  <g clip-path="url(#clip0_116_1081)">
    <path fill="#221F20"
          d="M20.4708 0H3.5292C1.58008 0 0 1.58008 0 3.5292V20.4708C0 22.4199 1.58008 24 3.5292 24H20.4708C22.4199 24 24 22.4199 24 20.4708V3.5292C24 1.58008 22.4199 0 20.4708 0Z"/>
    <path fill="#BBE349"
          d="M9.69478 4.33656H5.65414C4.84414 4.33656 4.1875 4.9932 4.1875 5.8032V18.4951C4.1875 19.3051 4.84414 19.9618 5.65414 19.9618H9.69478C10.5048 19.9618 11.1614 19.3051 11.1614 18.4951V5.8032C11.1614 4.9932 10.5048 4.33656 9.69478 4.33656Z"/>
    <path fill="#BBE349"
          d="M18.3459 4.33656H14.3053C13.4953 4.33656 12.8386 4.9932 12.8386 5.8032V18.4951C12.8386 19.3051 13.4953 19.9618 14.3053 19.9618H18.3459C19.1559 19.9618 19.8125 19.3051 19.8125 18.4951V5.8032C19.8125 4.9932 19.1559 4.33656 18.3459 4.33656Z"/>
    <path fill="#221F20"
          d="M16.3665 11.5346C16.4959 11.6174 16.5931 11.7206 16.6576 11.8447C16.7224 11.9688 16.7546 12.0996 16.7546 12.2376C16.7546 12.3754 16.7222 12.5064 16.6576 12.6305C16.5928 12.7546 16.4959 12.858 16.3665 12.9406L9.33521 17.2198C9.26321 17.261 9.18785 17.292 9.10865 17.3129C9.02945 17.3335 8.95409 17.3438 8.88209 17.3438C8.65193 17.3438 8.45081 17.2646 8.27825 17.106C8.10569 16.9476 8.01953 16.751 8.01953 16.5168V7.95816C8.01953 7.72392 8.10569 7.52736 8.27825 7.36896C8.45081 7.21056 8.65217 7.13112 8.88209 7.13112C8.95409 7.13112 9.02945 7.14144 9.10865 7.16208C9.18785 7.18272 9.26321 7.21368 9.33521 7.2552L16.3665 11.5344V11.5346Z"/>
    <path fill="#221F20"
          d="M16.3665 11.5346C16.4959 11.6174 16.5931 11.7206 16.6576 11.8447C16.7224 11.9688 16.7546 12.0996 16.7546 12.2376C16.7546 12.3754 16.7222 12.5064 16.6576 12.6305C16.5928 12.7546 16.4959 12.858 16.3665 12.9406L9.33521 17.2198C9.26321 17.261 9.18785 17.292 9.10865 17.3129C9.02945 17.3335 8.95409 17.3438 8.88209 17.3438C8.65193 17.3438 8.45081 17.2646 8.27825 17.106C8.10569 16.9476 8.01953 16.751 8.01953 16.5168V7.95816C8.01953 7.72392 8.10569 7.52736 8.27825 7.36896C8.45081 7.21056 8.65217 7.13112 8.88209 7.13112C8.95409 7.13112 9.02945 7.14144 9.10865 7.16208C9.18785 7.18272 9.26321 7.21368 9.33521 7.2552L16.3665 11.5344V11.5346Z"/>
    <path fill="#221F20"
          d="M15.4279 15.9924C15.8004 15.9924 16.1145 16.1206 16.3709 16.3764C16.6267 16.6327 16.7549 16.9469 16.7549 17.3194C16.7549 17.6918 16.6267 18.0002 16.3709 18.2448C16.1148 18.4894 15.8004 18.6115 15.4279 18.6115C15.0554 18.6115 14.747 18.4894 14.5025 18.2448C14.2581 18.0005 14.1357 17.6921 14.1357 17.3194C14.1357 16.9466 14.2579 16.6327 14.5025 16.3764C14.7468 16.1203 15.0552 15.9924 15.4279 15.9924Z"/>
  </g>
  <defs>
    <clipPath id="clip0_116_1081">
      <rect fill="white" height="24" width="24"/>
    </clipPath>
  </defs>
</svg>
