<svg width="942" height="192" viewBox="0 0 942 192" fill="none" xmlns="http://www.w3.org/2000/svg">
<g clip-path="url(#clip0_1_82)">
<path d="M321.802 92.68H295.687C295.687 88.7973 294.117 85.6607 290.965 83.2451C287.813 80.8421 283.635 79.6279 278.407 79.6279C274.255 79.6279 270.875 80.4247 268.268 82.0309C265.66 83.6372 264.356 85.7113 264.356 88.2534C264.356 90.9347 265.926 93.3377 269.078 95.4751C272.217 97.6125 276.141 99.8638 280.825 102.191C285.509 104.531 290.636 107.111 296.193 109.918C301.75 112.726 306.865 116.103 311.561 120.049C316.245 123.995 320.156 128.712 323.309 134.189C326.448 139.678 328.03 146.229 328.03 153.855H301.915C301.915 149.037 300.333 144.99 297.193 141.714C294.041 138.438 290.13 135.428 285.446 132.684C280.762 129.939 275.635 127.296 270.078 124.754C264.521 122.212 259.394 119.303 254.71 116.027C250.026 112.751 246.102 108.907 242.962 104.493C239.81 100.079 238.241 94.6657 238.241 88.2408C238.241 83.5613 239.279 79.2106 241.355 75.2013C243.431 71.1921 246.304 67.7141 249.988 64.7672C253.672 61.8204 258.027 59.5565 263.039 57.9503C268.052 56.3441 273.584 55.5473 279.61 55.5473C285.636 55.5473 291.623 56.4453 296.775 58.2538C301.928 60.0624 306.346 62.6045 310.029 65.8802C313.713 69.1559 316.587 73.0766 318.663 77.617C320.739 82.1701 321.777 87.1784 321.777 92.6674L321.802 92.68ZM253.115 125.778C257.394 125.778 261.014 127.258 263.964 130.192C266.913 133.139 268.382 136.744 268.382 141.031C268.382 145.318 266.9 148.86 263.964 151.667C261.014 154.475 257.406 155.879 253.115 155.879C248.824 155.879 245.279 154.475 242.469 151.667C239.658 148.86 238.253 145.318 238.253 141.031C238.253 136.744 239.658 133.139 242.469 130.192C245.279 127.245 248.824 125.778 253.115 125.778Z" fill="#221F20"/>
<path d="M335.069 57.5583H347.12V31.4793H373.235V57.5583H392.312V83.6498H373.235V109.134C373.235 114.75 374.97 119.265 378.451 122.68C381.932 126.094 386.552 127.802 392.312 127.802V153.881C385.755 153.881 379.729 152.78 374.235 150.567C368.741 148.354 363.994 145.281 359.981 141.335C355.969 137.389 352.816 132.671 350.538 127.182C348.259 121.693 347.12 115.749 347.12 109.324V83.6372H335.069V57.5456V57.5583Z" fill="#221F20"/>
<path d="M402.351 105.72C402.351 98.4978 403.591 91.8074 406.072 85.6481C408.554 79.5015 411.997 74.1769 416.415 69.6997C420.833 65.2226 426.086 61.7445 432.175 59.2657C438.264 56.7868 444.935 55.56 452.164 55.56C459.392 55.56 466.05 56.7994 472.152 59.2657C478.241 61.7445 483.494 65.2226 487.912 69.6997C492.33 74.1769 495.773 79.5015 498.255 85.6481C500.736 91.8074 501.964 98.4852 501.964 105.72C501.964 107.73 501.761 110.07 501.369 112.739H429.466C430.935 117.823 433.745 121.933 437.897 125.083C442.049 128.232 446.935 129.8 452.556 129.8C459.658 129.8 465.405 127.46 469.823 122.781H499.343C497.736 127.865 495.457 132.443 492.52 136.529C489.571 140.614 486.051 144.092 481.975 146.963C477.886 149.846 473.304 152.047 468.215 153.59C463.126 155.12 457.771 155.904 452.151 155.904C444.923 155.904 438.264 154.665 432.162 152.186C426.074 149.707 420.82 146.267 416.402 141.853C411.984 137.439 408.541 132.153 406.06 126.006C403.579 119.859 402.338 113.093 402.338 105.745L402.351 105.72ZM474.646 95.4878C472.772 91.213 469.886 87.8361 466.012 85.3572C462.126 82.8783 457.645 81.6389 452.556 81.6389C447.467 81.6389 443.011 82.8783 439.201 85.3572C435.391 87.8361 432.542 91.213 430.669 95.4878H474.658H474.646Z" fill="#221F20"/>
<path d="M544.143 192H518.028V95.6775H544.143V106.719C544.143 110.058 544.751 113.144 545.953 115.951C547.156 118.759 548.802 121.2 550.878 123.274C552.954 125.348 555.397 126.954 558.207 128.093C561.017 129.231 564.03 129.8 567.246 129.8C573.942 129.8 579.462 127.625 583.816 123.274C588.171 118.923 590.348 113.409 590.348 106.719C590.348 103.506 589.779 100.496 588.639 97.6884C587.5 94.8807 585.892 92.4397 583.816 90.3656C581.74 88.2914 579.297 86.6599 576.487 85.4457C573.676 84.2442 570.588 83.6372 567.246 83.6372H518.041V57.5456H567.246C574.208 57.5456 580.664 58.823 586.626 61.3525C592.589 63.8946 597.779 67.3726 602.197 71.7865C606.615 76.2005 610.096 81.4239 612.641 87.444C615.185 93.4642 616.451 99.8891 616.451 106.706C616.451 113.523 615.21 119.948 612.729 125.968C610.248 131.988 606.868 137.199 602.589 141.625C598.298 146.039 593.285 149.517 587.525 152.06C581.765 154.602 575.537 155.866 568.853 155.866C564.296 155.866 559.941 155.259 555.802 154.058C551.65 152.856 547.764 151.111 544.156 148.847V191.987L544.143 192Z" fill="#221F20"/>
<path d="M658.618 19.439V153.881H632.502V19.439H658.618Z" fill="#221F20"/>
<path d="M674.682 105.72C674.682 98.637 675.986 92.0477 678.593 85.9516C681.201 79.8682 684.746 74.5437 689.24 70.0033C693.721 65.4629 699.05 61.909 705.202 59.3668C711.355 56.8247 717.925 55.56 724.887 55.56C731.849 55.56 738.571 56.8374 744.673 59.3668C750.762 61.909 756.091 65.4502 760.636 70.0033C765.18 74.5563 768.738 79.8682 771.282 85.9516C773.826 92.035 775.092 98.6243 775.092 105.72C775.092 112.815 773.814 119.227 771.282 125.386C768.738 131.545 765.193 136.857 760.636 141.335C756.079 145.812 750.762 149.366 744.673 151.971C738.584 154.576 731.989 155.879 724.887 155.879C717.785 155.879 711.367 154.576 705.202 151.971C699.038 149.366 693.721 145.824 689.24 141.335C684.758 136.857 681.201 131.533 678.593 125.386C675.986 119.24 674.682 112.676 674.682 105.72ZM700.797 105.72C700.797 109.071 701.405 112.208 702.607 115.154C703.81 118.101 705.519 120.669 707.722 122.882C709.924 125.095 712.507 126.79 715.456 128.004C718.406 129.206 721.545 129.813 724.9 129.813C728.254 129.813 731.596 129.206 734.546 128.004C737.495 126.803 740.04 125.095 742.179 122.882C744.318 120.669 745.989 118.101 747.205 115.154C748.407 112.208 749.015 109.071 749.015 105.72C749.015 98.7634 746.736 93.0089 742.192 88.4685C737.635 83.9281 731.875 81.6515 724.925 81.6515C721.583 81.6515 718.431 82.2586 715.481 83.4601C712.532 84.6616 709.962 86.3437 707.747 88.4811C705.532 90.6185 703.835 93.1606 702.633 96.1075C701.43 99.0543 700.822 102.267 700.822 105.745L700.797 105.72Z" fill="#221F20"/>
<path d="M836.361 81.6389C830.602 81.6389 825.981 83.3463 822.5 86.7611C819.019 90.1759 817.284 94.691 817.284 100.306V153.881H791.169V100.104C791.169 93.6792 792.308 87.7349 794.587 82.246C796.866 76.7696 800.005 72.0522 804.031 68.1062C808.043 64.1602 812.803 61.0869 818.284 58.8736C823.778 56.6603 829.804 55.56 836.361 55.56V81.6389Z" fill="#221F20"/>
<path d="M842.387 105.72C842.387 98.4978 843.628 91.8074 846.109 85.6481C848.59 79.5015 852.033 74.1769 856.451 69.6997C860.869 65.2226 866.123 61.7445 872.224 59.2657C878.313 56.7868 884.972 55.56 892.213 55.56C899.453 55.56 906.099 56.7994 912.201 59.2657C918.29 61.7445 923.543 65.2226 927.974 69.6997C932.392 74.1769 935.835 79.5015 938.316 85.6481C940.797 91.8074 942.025 98.4852 942.025 105.72C942.025 107.73 941.823 110.07 941.418 112.739H869.515C870.984 117.823 873.794 121.933 877.946 125.083C882.098 128.232 886.984 129.8 892.605 129.8C899.707 129.8 905.454 127.46 909.872 122.781H939.392C937.785 127.865 935.506 132.443 932.569 136.529C929.62 140.614 926.113 144.092 922.024 146.963C917.935 149.846 913.353 152.047 908.264 153.59C903.175 155.12 897.82 155.904 892.2 155.904C884.972 155.904 878.313 154.665 872.211 152.186C866.123 149.707 860.869 146.267 856.438 141.853C852.02 137.439 848.577 132.153 846.096 126.006C843.615 119.859 842.374 113.093 842.374 105.745L842.387 105.72ZM914.695 95.4878C912.821 91.213 909.935 87.8361 906.061 85.3572C902.175 82.8783 897.694 81.6389 892.605 81.6389C887.516 81.6389 883.06 82.8783 879.25 85.3572C875.439 87.8361 872.591 91.213 870.718 95.4878H914.707H914.695Z" fill="#221F20"/>
<path d="M65.3833 0H17.4187C7.7986 0 0 7.7915 0 17.4028V167.945C0 177.556 7.7986 185.347 17.4187 185.347H65.3833C75.0033 185.347 82.8019 177.556 82.8019 167.945V17.4028C82.8019 7.7915 75.0033 0 65.3833 0Z" fill="#BBE349"/>
<path d="M168.098 0H120.133C110.513 0 102.714 7.7915 102.714 17.4028V167.945C102.714 177.556 110.513 185.347 120.133 185.347H168.098C177.718 185.347 185.516 177.556 185.516 167.945V17.4028C185.516 7.7915 177.718 0 168.098 0Z" fill="#BBE349"/>
<path d="M144.603 85.3825C146.134 86.369 147.286 87.5958 148.059 89.0629C148.831 90.53 149.211 92.0856 149.211 93.7171C149.211 95.3487 148.831 96.9043 148.059 98.3714C147.286 99.8385 146.134 101.065 144.603 102.052L61.1172 152.818C60.2691 153.312 59.3703 153.678 58.4335 153.919C57.4968 154.159 56.598 154.285 55.7498 154.285C53.0155 154.285 50.623 153.35 48.5849 151.465C46.5342 149.581 45.5088 147.254 45.5088 144.471V42.9632C45.5088 40.1808 46.5342 37.8536 48.5849 35.9692C50.6356 34.0847 53.0282 33.1488 55.7498 33.1488C56.598 33.1488 57.4968 33.2753 58.4335 33.5156C59.3703 33.7559 60.2691 34.1227 61.1172 34.6159L144.603 85.3825Z" fill="#221F20"/>
<path d="M144.603 85.3825C146.134 86.369 147.286 87.5958 148.059 89.0629C148.831 90.53 149.211 92.0856 149.211 93.7171C149.211 95.3487 148.831 96.9043 148.059 98.3714C147.286 99.8385 146.134 101.065 144.603 102.052L61.1172 152.818C60.2691 153.312 59.3703 153.678 58.4335 153.919C57.4968 154.159 56.598 154.285 55.7498 154.285C53.0155 154.285 50.623 153.35 48.5849 151.465C46.5342 149.581 45.5088 147.254 45.5088 144.471V42.9632C45.5088 40.1808 46.5342 37.8536 48.5849 35.9692C50.6356 34.0847 53.0282 33.1488 55.7498 33.1488C56.598 33.1488 57.4968 33.2753 58.4335 33.5156C59.3703 33.7559 60.2691 34.1227 61.1172 34.6159L144.603 85.3825Z" fill="#221F20"/>
<path d="M133.463 138.261C137.881 138.261 141.615 139.779 144.653 142.814C147.691 145.85 149.211 149.581 149.211 153.995C149.211 158.409 147.691 162.076 144.653 164.973C141.615 167.869 137.881 169.323 133.463 169.323C129.045 169.323 125.374 167.869 122.475 164.973C119.576 162.076 118.12 158.421 118.12 153.995C118.12 149.568 119.576 145.85 122.475 142.814C125.374 139.779 129.032 138.261 133.463 138.261Z" fill="#221F20"/>
</g>
<defs>
<clipPath id="clip0_1_82">
<rect width="942" height="192" fill="white"/>
</clipPath>
</defs>
</svg>
