<svg xmlns="http://www.w3.org/2000/svg" version="1.1" xmlns:xlink="http://www.w3.org/1999/xlink" width="128" height="128"><svg width="128" height="128" viewBox="0 0 128 128" fill="none" xmlns="http://www.w3.org/2000/svg">
<path d="M45.1151 0H12.0146C5.37911 0 0 5.37911 0 12.0146V115.986C0 122.621 5.37911 128 12.0146 128H45.1151C51.7506 128 57.1297 122.621 57.1297 115.986V12.0146C57.1297 5.37911 51.7506 0 45.1151 0Z" fill="#BBE349"></path>
<path d="M115.984 0.000244141H82.8837C76.2482 0.000244141 70.8691 5.37935 70.8691 12.0148V115.986C70.8691 122.621 76.2482 128 82.8837 128H115.984C122.62 128 127.999 122.621 127.999 115.986V12.0148C127.999 5.37935 122.62 0.000244141 115.984 0.000244141Z" fill="#BBE349"></path>
<path d="M99.7681 58.9665C100.828 59.6448 101.624 60.4902 102.153 61.5067C102.684 62.5231 102.947 63.5946 102.947 64.7251C102.947 65.8536 102.682 66.9271 102.153 67.9435C101.622 68.96 100.828 69.8074 99.7681 70.4837L42.1686 105.538C41.5787 105.877 40.9614 106.13 40.3126 106.301C39.6638 106.47 39.0465 106.555 38.4566 106.555C36.5712 106.555 34.9236 105.906 33.51 104.607C32.0964 103.309 31.3906 101.699 31.3906 99.7799V29.6683C31.3906 27.7495 32.0964 26.1393 33.51 24.8417C34.9236 23.5441 36.5732 22.8933 38.4566 22.8933C39.0465 22.8933 39.6638 22.9779 40.3126 23.1469C40.9614 23.316 41.5787 23.5696 42.1686 23.9098L99.7681 58.9646V58.9665Z" fill="#221F20"></path>
<path d="M99.7681 58.9665C100.828 59.6448 101.624 60.4902 102.153 61.5067C102.684 62.5231 102.947 63.5946 102.947 64.7251C102.947 65.8536 102.682 66.9271 102.153 67.9435C101.622 68.96 100.828 69.8074 99.7681 70.4837L42.1686 105.538C41.5787 105.877 40.9614 106.13 40.3126 106.301C39.6638 106.47 39.0465 106.555 38.4566 106.555C36.5712 106.555 34.9236 105.906 33.51 104.607C32.0964 103.309 31.3906 101.699 31.3906 99.7799V29.6683C31.3906 27.7495 32.0964 26.1393 33.51 24.8417C34.9236 23.5441 36.5732 22.8933 38.4566 22.8933C39.0465 22.8933 39.6638 22.9779 40.3126 23.1469C40.9614 23.316 41.5787 23.5696 42.1686 23.9098L99.7681 58.9646V58.9665Z" fill="#221F20"></path>
<path d="M92.0774 95.4841C95.1288 95.4841 97.7023 96.534 99.8021 98.6298C101.898 100.73 102.948 103.303 102.948 106.354C102.948 109.406 101.898 111.932 99.8021 113.936C97.7043 115.939 95.1288 116.94 92.0774 116.94C89.0261 116.94 86.4997 115.939 84.4963 113.936C82.4949 111.934 81.4922 109.408 81.4922 106.354C81.4922 103.301 82.4929 100.73 84.4963 98.6298C86.4978 96.532 89.0242 95.4841 92.0774 95.4841Z" fill="#221F20"></path>
</svg><style>@media (prefers-color-scheme: light) { :root { filter: none; } }
@media (prefers-color-scheme: dark) { :root { filter: none; } }
</style></svg>